<svg width="15" height="15" viewBox="0 0 15 15" fill="none" xmlns="http://www.w3.org/2000/svg">
<g clip-path="url(#clip0_9135_815)">
<mask id="mask0_9135_815" style="mask-type:luminance" maskUnits="userSpaceOnUse" x="0" y="0" width="15" height="15">
<path d="M15 0H0V15H15V0Z" fill="white"/>
</mask>
<g mask="url(#mask0_9135_815)">
<path fill-rule="evenodd" clip-rule="evenodd" d="M12.6057 12.9847C15.6317 10.163 15.7972 5.42251 12.9754 2.39652C10.1537 -0.629436 5.41322 -0.79499 2.38723 2.02678C2.37119 2.04173 2.35521 2.05677 2.33931 2.07184C5.13398 -0.497883 9.48334 -0.334383 12.0768 2.44674C14.6815 5.23992 14.5287 9.61578 11.7355 12.2205C8.9423 14.8252 4.56642 14.6724 1.96173 11.8792C0.00906324 9.78518 -0.393868 6.80173 0.70361 4.34185C-0.545896 7.02694 -0.126476 10.3159 2.0175 12.615C4.83923 15.641 9.57975 15.8065 12.6057 12.9847Z" fill="url(#paint0_linear_9135_815)"/>
<path fill-rule="evenodd" clip-rule="evenodd" d="M12.0554 9.90801C13.8059 6.87614 12.7671 2.99923 9.73516 1.24876C6.70329 -0.50171 2.82638 0.537108 1.07591 3.569C-0.674561 6.60092 0.364255 10.4778 3.39615 12.2282C6.42807 13.9787 10.3049 12.94 12.0554 9.90801ZM11.0573 9.33175C12.6486 6.57547 11.7042 3.05103 8.94796 1.4597C6.19169 -0.13165 2.66726 0.812726 1.07591 3.569C-0.515428 6.32528 0.428936 9.84971 3.18521 11.4411C5.9415 13.0324 9.46593 12.088 11.0573 9.33175Z" fill="url(#paint1_linear_9135_815)"/>
<path fill-rule="evenodd" clip-rule="evenodd" d="M10.0647 8.74784C11.4969 6.2672 10.647 3.09521 8.16631 1.663C5.68567 0.230804 2.51369 1.08074 1.08146 3.56139C-0.35074 6.042 0.499195 9.21403 2.97985 10.6462C5.46051 12.0784 8.6325 11.2285 10.0647 8.74784ZM9.06657 8.17158C10.3397 5.96653 9.58412 3.147 7.37912 1.87395C5.17412 0.600866 2.35455 1.35636 1.08146 3.56139C-0.191597 5.76641 0.563898 8.58595 2.76893 9.85903C4.97394 11.1321 7.79348 10.3766 9.06657 8.17158Z" fill="url(#paint2_linear_9135_815)"/>
<path fill-rule="evenodd" clip-rule="evenodd" d="M7.41163 6.89212C8.24858 5.0973 7.47204 2.96389 5.67722 2.12695C3.89091 1.29396 1.76909 2.05925 0.923996 3.83604C1.87372 1.83492 4.26222 0.972556 6.27292 1.91016C8.29203 2.8517 9.1656 5.25179 8.22406 7.27095C7.28253 9.2901 4.88244 10.1637 2.86329 9.22213C0.852607 8.28453 -0.0220859 5.90051 0.900369 3.88671C0.0825194 5.67619 0.860143 7.79346 2.64648 8.62648C4.44127 9.46337 6.57468 8.68689 7.41163 6.89212Z" fill="url(#paint3_linear_9135_815)"/>
</g>
</g>
<defs>
<linearGradient id="paint0_linear_9135_815" x1="0.255683" y1="30.7632" x2="15.554" y2="30.5934" gradientUnits="userSpaceOnUse">
<stop stop-color="#7A8FD9"/>
<stop offset="1" stop-color="#AC62E4"/>
</linearGradient>
<linearGradient id="paint1_linear_9135_815" x1="0.437835" y1="26.4211" x2="13.3847" y2="26.2775" gradientUnits="userSpaceOnUse">
<stop stop-color="#7A8FD9"/>
<stop offset="1" stop-color="#AC62E4"/>
</linearGradient>
<linearGradient id="paint2_linear_9135_815" x1="0.559404" y1="22.2585" x2="11.1523" y2="22.141" gradientUnits="userSpaceOnUse">
<stop stop-color="#7A8FD9"/>
<stop offset="1" stop-color="#AC62E4"/>
</linearGradient>
<linearGradient id="paint3_linear_9135_815" x1="0.668282" y1="18.0924" x2="8.90775" y2="18.0009" gradientUnits="userSpaceOnUse">
<stop stop-color="#7A8FD9"/>
<stop offset="1" stop-color="#AC62E4"/>
</linearGradient>
<clipPath id="clip0_9135_815">
<rect width="15" height="15" fill="white"/>
</clipPath>
</defs>
</svg>
